<svg width="281" height="40" viewBox="0 0 281 40" fill="none" xmlns="http://www.w3.org/2000/svg">
<path d="M106.932 32.3888C105.045 32.3888 103.409 32.0633 102.023 31.4108C100.636 30.76 99.4993 29.8865 98.6124 28.7906C97.7238 27.6946 97.0663 26.4688 96.6363 25.1097C96.2063 23.7507 95.9922 22.3512 95.9922 20.9079V20.3262C95.9922 18.9115 96.2063 17.5255 96.6363 16.1665C97.0663 14.8075 97.7238 13.5884 98.6124 12.5059C99.4993 11.4251 100.616 10.5585 101.961 9.90593C103.307 9.25509 104.88 8.92798 106.682 8.92798C108.984 8.92798 110.904 9.44056 112.444 10.4674C113.983 11.4943 115.14 12.8044 115.917 14.3978C116.693 15.9929 117.082 17.7043 117.082 19.5354V21.1575H97.4052V18.7446H114.917L114.126 19.9502C114.126 18.3147 113.842 16.8798 113.273 15.6455C112.705 14.4113 111.872 13.4417 110.778 12.7336C109.682 12.0271 108.316 11.673 106.681 11.673C104.961 11.673 103.533 12.076 102.396 12.8786C101.258 13.6829 100.406 14.7502 99.8382 16.0822C99.27 17.4126 98.9851 18.925 98.9851 20.6162C98.9851 22.2804 99.2683 23.7979 99.8382 25.1704C100.406 26.543 101.28 27.6322 102.458 28.4365C103.637 29.2408 105.128 29.6421 106.93 29.6421C108.844 29.6421 110.397 29.2053 111.589 28.3319C112.781 27.4585 113.516 26.4249 113.793 25.2328H116.705C116.426 26.7031 115.845 27.9711 114.958 29.0384C114.069 30.1057 112.946 30.9303 111.589 31.5137C110.232 32.0971 108.679 32.3888 106.932 32.3888Z" fill="#808285"/>
<path d="M121.406 31.6823V9.63615H123.901V18.9115H123.402C123.402 16.8882 123.685 15.1414 124.255 13.6711C124.823 12.2008 125.676 11.0576 126.813 10.2398C127.949 9.42201 129.393 9.01228 131.14 9.01228H131.264C133.011 9.01228 134.453 9.41527 135.591 10.2179C136.727 11.0221 137.574 12.1586 138.129 13.6289C138.683 15.0992 138.96 16.8595 138.96 18.9115H137.962C137.962 16.8882 138.247 15.1414 138.815 13.6711C139.383 12.2008 140.243 11.0576 141.393 10.2398C142.543 9.42201 143.993 9.01228 145.74 9.01228H145.865C147.611 9.01228 149.06 9.41527 150.211 10.2179C151.361 11.0221 152.221 12.1586 152.789 13.6289C153.358 15.0992 153.643 16.8595 153.643 18.9115V31.6806H150.523V18.2034C150.523 16.2626 150.051 14.7232 149.109 13.5867C148.166 12.4503 146.807 11.8821 145.032 11.8821C143.202 11.8821 141.752 12.4722 140.685 13.6491C139.617 14.8277 139.083 16.4161 139.083 18.4124V31.6806H135.964V18.2034C135.964 16.2626 135.491 14.7232 134.549 13.5867C133.606 12.4503 132.247 11.8821 130.472 11.8821C128.642 11.8821 127.192 12.4722 126.125 13.6491C125.058 14.8277 124.523 16.4161 124.523 18.4124V31.6806H121.406V31.6823Z" fill="#808285"/>
<path d="M158.092 39.9999V9.67829H160.588V19.1206L159.839 19.2032C159.95 16.9843 160.428 15.1127 161.274 13.5884C162.119 12.0642 163.27 10.9058 164.727 10.115C166.182 9.32421 167.811 8.92965 169.615 8.92965C171.224 8.92965 172.686 9.24158 174.004 9.86545C175.321 10.4893 176.444 11.3358 177.373 12.4031C178.302 13.4704 179.009 14.6911 179.494 16.0637C179.98 17.4362 180.223 18.8711 180.223 20.3683V20.9501C180.223 22.4473 179.973 23.8822 179.474 25.2547C178.975 26.6272 178.26 27.848 177.333 28.9153C176.404 29.9826 175.281 30.8291 173.964 31.4529C172.647 32.0768 171.17 32.3887 169.534 32.3887C167.788 32.3887 166.186 31.9942 164.731 31.2034C163.276 30.4126 162.095 29.2424 161.195 27.6878C160.293 26.1349 159.802 24.2211 159.718 21.9482L161.215 25.0676V39.9999H158.092ZM169.115 29.6437C170.779 29.6437 172.207 29.2492 173.399 28.4584C174.591 27.6676 175.507 26.5868 176.144 25.2143C176.781 23.8418 177.1 22.3242 177.1 20.66C177.1 18.9402 176.775 17.4092 176.122 16.0637C175.47 14.7181 174.547 13.6508 173.355 12.86C172.163 12.0692 170.748 11.6747 169.113 11.6747C167.616 11.6747 166.257 12.0068 165.036 12.6729C163.815 13.3389 162.852 14.2747 162.146 15.4803C161.439 16.6858 161.085 18.1072 161.085 19.7445V21.783C161.085 23.3359 161.439 24.7017 162.146 25.8803C162.852 27.0589 163.817 27.9812 165.036 28.6455C166.258 29.3099 167.617 29.6437 169.115 29.6437Z" fill="#808285"/>
<path d="M184.047 31.6823V9.67834H186.542V18.8711H186.293C186.293 15.654 186.999 13.2765 188.414 11.7371C189.829 10.1977 192.046 9.42879 195.069 9.42879H195.776V12.2564H194.486C192.1 12.2564 190.284 12.8735 189.036 14.1078C187.788 15.342 187.164 17.1513 187.164 19.5354V31.6806H184.047V31.6823Z" fill="#808285"/>
<path d="M208.049 32.3888C206.162 32.3888 204.527 32.0633 203.141 31.4108C201.753 30.76 200.616 29.8865 199.729 28.7906C198.841 27.6946 198.183 26.4688 197.753 25.1097C197.323 23.7507 197.109 22.3512 197.109 20.9079V20.3262C197.109 18.9115 197.323 17.5255 197.753 16.1665C198.183 14.8075 198.841 13.5884 199.729 12.5059C200.616 11.4251 201.733 10.5585 203.078 9.90593C204.424 9.25509 205.997 8.92798 207.799 8.92798C210.101 8.92798 212.021 9.44056 213.561 10.4674C215.1 11.4943 216.257 12.8044 217.034 14.3978C217.81 15.9929 218.199 17.7043 218.199 19.5354V21.1575H198.526V18.7446H216.038L215.247 19.9502C215.247 18.3147 214.962 16.8798 214.394 15.6455C213.826 14.4113 212.993 13.4417 211.898 12.7336C210.802 12.0271 209.437 11.673 207.801 11.673C206.081 11.673 204.653 12.076 203.517 12.8786C202.378 13.6829 201.527 14.7502 200.959 16.0822C200.39 17.4126 200.106 18.925 200.106 20.6162C200.106 22.2804 200.389 23.7979 200.959 25.1704C201.527 26.543 202.4 27.6322 203.579 28.4365C204.758 29.2408 206.248 29.6421 208.051 29.6421C209.964 29.6421 211.517 29.2053 212.709 28.3319C213.901 27.4585 214.637 26.4249 214.913 25.2328H217.825C217.547 26.7031 216.965 27.9711 216.078 29.0384C215.19 30.1057 214.067 30.9303 212.709 31.5137C211.349 32.0971 209.796 32.3888 208.049 32.3888Z" fill="#808285"/>
<path d="M230.301 32.3061C227.473 32.3061 225.295 31.689 223.77 30.4548C222.244 29.2205 221.469 27.5647 221.442 25.484H224.354C224.409 26.5379 224.887 27.4956 225.789 28.3538C226.689 29.2138 228.195 29.6437 230.302 29.6437C232.272 29.6437 233.747 29.2357 234.732 28.4162C235.717 27.5985 236.209 26.607 236.209 25.4419C236.209 24.3611 235.799 23.5214 234.981 22.9262C234.164 22.331 232.978 21.9482 231.425 21.783L228.93 21.5335C226.934 21.3126 225.318 20.6954 224.084 19.6821C222.85 18.6704 222.233 17.276 222.233 15.5022C222.233 14.1988 222.565 13.0623 223.231 12.0911C223.897 11.1216 224.833 10.3645 226.038 9.82498C227.244 9.28374 228.665 9.01396 230.302 9.01396C232.66 9.01396 234.58 9.56869 236.064 10.6782C237.548 11.7876 238.303 13.3675 238.33 15.4196H235.418C235.389 14.3657 234.946 13.4788 234.088 12.7572C233.228 12.0372 231.967 11.6764 230.302 11.6764C228.583 11.6764 227.301 12.0507 226.455 12.7993C225.608 13.548 225.187 14.4635 225.187 15.5443C225.187 16.4599 225.505 17.2153 226.143 17.8105C226.78 18.4074 227.778 18.7749 229.137 18.9132L231.633 19.1628C233.852 19.4123 235.661 20.0513 237.06 21.0765C238.46 22.1034 239.161 23.572 239.161 25.4857C239.161 26.7891 238.794 27.961 238.059 29.0013C237.323 30.0417 236.292 30.8527 234.959 31.4344C233.629 32.0144 232.076 32.3061 230.301 32.3061Z" fill="#808285"/>
<path d="M249.642 32.264C248.089 32.264 246.717 31.9858 245.525 31.4328C244.333 30.878 243.41 30.0737 242.759 29.0199C242.107 27.9661 241.782 26.6914 241.782 25.1924C241.782 23.7221 242.12 22.4744 242.8 21.4492C243.479 20.424 244.464 19.64 245.752 19.0987C247.042 18.5575 248.602 18.2877 250.431 18.2877H256.879V20.6584H250.224C248.477 20.6584 247.138 21.0816 246.209 21.9264C245.28 22.7728 244.817 23.8755 244.817 25.2329C244.817 26.6206 245.302 27.7216 246.272 28.5394C247.241 29.3571 248.56 29.7669 250.224 29.7669C251.249 29.7669 252.234 29.5797 253.178 29.2054C254.121 28.8311 254.911 28.1937 255.549 27.2916C256.186 26.3912 256.533 25.1486 256.589 23.5687L257.505 24.8586C257.393 26.4958 257.006 27.8599 256.34 28.9558C255.674 30.0518 254.773 30.8763 253.635 31.4311C252.499 31.9858 251.168 32.264 249.642 32.264ZM257.088 31.6823V25.0693H256.589V17.2491C256.589 15.6135 256.159 14.3574 255.299 13.4839C254.439 12.6105 253.109 12.1738 251.306 12.1738C250.475 12.1738 249.636 12.1873 248.791 12.216C247.944 12.2446 247.14 12.2784 246.378 12.3205C245.614 12.3627 244.943 12.4116 244.361 12.4655V9.71882C244.972 9.66317 245.596 9.60753 246.233 9.55189C246.87 9.49625 247.53 9.46253 248.209 9.44735C248.889 9.43386 249.546 9.42712 250.185 9.42712C252.431 9.42712 254.24 9.70533 255.613 10.2584C256.985 10.8131 257.99 11.6798 258.629 12.8584C259.267 14.037 259.585 15.5967 259.585 17.5374V31.6806H257.088V31.6823Z" fill="#808285"/>
<path d="M271.813 32.3061C268.985 32.3061 266.807 31.689 265.283 30.4548C263.757 29.2205 262.981 27.5647 262.954 25.484H265.866C265.922 26.5379 266.399 27.4956 267.301 28.3538C268.201 29.2138 269.707 29.6437 271.815 29.6437C273.784 29.6437 275.259 29.2357 276.244 28.4162C277.229 27.5985 277.721 26.607 277.721 25.4419C277.721 24.3611 277.311 23.5214 276.494 22.9262C275.676 22.331 274.491 21.9482 272.938 21.783L270.442 21.5335C268.446 21.3126 266.831 20.6954 265.596 19.6821C264.362 18.6704 263.745 17.276 263.745 15.5022C263.745 14.1988 264.077 13.0623 264.743 12.0911C265.409 11.1216 266.345 10.3645 267.551 9.82498C268.756 9.28374 270.178 9.01396 271.815 9.01396C274.172 9.01396 276.092 9.56869 277.576 10.6782C279.06 11.7876 279.815 13.3675 279.842 15.4196H276.93C276.902 14.3657 276.458 13.4788 275.6 12.7572C274.74 12.0372 273.479 11.6764 271.815 11.6764C270.095 11.6764 268.813 12.0507 267.967 12.7993C267.121 13.548 266.699 14.4635 266.699 15.5443C266.699 16.4599 267.018 17.2153 267.655 17.8105C268.292 18.4074 269.291 18.7749 270.65 18.9132L273.145 19.1628C275.364 19.4123 277.173 20.0513 278.573 21.0765C279.972 22.1034 280.674 23.572 280.674 25.4857C280.674 26.7891 280.306 27.961 279.571 29.0013C278.836 30.0417 277.804 30.8527 276.472 31.4344C275.14 32.0144 273.587 32.3061 271.813 32.3061Z" fill="#808285"/>
<path d="M7.2564 0H6.10646C4.69348 0 3.54355 1.02854 3.54355 2.5275V3.93879C3.54355 5.43776 4.69348 6.4663 6.10646 6.4663H7.2564C8.71153 6.4663 9.81932 5.43776 9.81932 3.93879V2.5275C9.81932 1.02011 8.7031 0 7.2564 0Z" fill="#FF7A00"/>
<path d="M26.5457 9.02245C22.9542 9.02245 20.6881 10.9059 19.5719 12.9967L19.3982 9.57045H14.0549V31.6419H19.6157V19.4124C19.6157 15.7332 21.5851 13.5986 24.5325 13.5986C27.4798 13.5986 28.682 15.482 28.682 18.8644V31.652H34.199V17.4514C34.199 12.4824 32.0206 9.02245 26.5457 9.02245Z" fill="#FF7A00"/>
<path d="M0.326416 14.1128H4.00555V31.6502H9.56639V9.5805H0.326416V14.1128Z" fill="#FF7A00"/>
<path d="M62.8598 9.02245C55.9298 9.02245 51.6066 13.5986 51.6066 20.3111V20.8692C51.6066 27.6677 55.8422 32.2017 62.8598 32.2017C68.5522 32.2017 72.3527 29.2897 73.4251 24.6697H67.9081C67.2623 26.5531 65.6858 27.8767 62.8615 27.8767C59.523 27.8767 57.5974 25.8635 57.3007 21.9315H73.5583C73.9394 14.2865 70.2619 9.02245 62.8598 9.02245ZM57.4305 18.1309C57.9448 14.9239 59.7405 13.3373 62.8177 13.3373C65.9387 13.3373 67.5675 15.133 67.8642 18.1309H57.4305Z" fill="#FF7A00"/>
<path d="M43.6481 24.8873V14.113H49.4618V9.58068H43.6481V2.09259H38.0872V25.4455C38.0872 29.8918 40.5287 32.2018 45.6613 32.2018C46.9427 32.2018 48.5294 31.9843 49.5579 31.6437V27.3204C48.956 27.5379 47.9359 27.7909 46.9073 27.7909C44.4675 27.7976 43.6481 26.9006 43.6481 24.8873Z" fill="#FF7A00"/>
<path d="M89.1246 9.19609C85.9176 9.19609 83.6498 11.0795 82.5791 13.8599L82.4476 9.58053H77.1043V31.6519H82.6651V20.7039C82.6651 16.4684 84.5923 14.1145 88.8279 14.1145C89.386 14.1145 90.0217 14.1584 90.4145 14.2022V9.3293C90.0655 9.23993 89.5074 9.19609 89.1246 9.19609Z" fill="#FF7A00"/>
</svg>
